<svg xmlns="http://www.w3.org/2000/svg" viewBox="0 0 1200 800" role="img" aria-labelledby="title desc"><title id="title">Backflow device testing</title><desc id="desc">Illustration of a backflow prevention assembly with pressure gauges and water pipes.</desc><defs><linearGradient id="bg" x1="0" y1="0" x2="1" y2="1"><stop offset="0" stop-color="#a7d8f0"/><stop offset="1" stop-color="#eef9ff"/></linearGradient><linearGradient id="pipe" x1="0" y1="0" x2="1" y2="0"><stop offset="0" stop-color="#0d3f5c"/><stop offset="1" stop-color="#216f93"/></linearGradient></defs><rect width="1200" height="800" rx="44" fill="url(#bg)"/><path d="M0 650c130-70 260-80 390-30s270 80 430 25 260-65 380-5v160H0z" fill="#fff" opacity=".55"/><path d="M180 510h840" stroke="url(#pipe)" stroke-width="70" stroke-linecap="round"/><path d="M295 365v145M905 365v145" stroke="#0d3f5c" stroke-width="58" stroke-linecap="round"/><rect x="380" y="315" width="440" height="250" rx="42" fill="#123f5a"/><rect x="420" y="360" width="360" height="160" rx="26" fill="#fff" opacity=".95"/><circle cx="505" cy="440" r="58" fill="#a7d8f0" stroke="#123f5a" stroke-width="12"/><circle cx="695" cy="440" r="58" fill="#a7d8f0" stroke="#123f5a" stroke-width="12"/><path d="M505 440l30-36M695 440l-38-24" stroke="#123f5a" stroke-width="10" stroke-linecap="round"/><path d="M520 300h160" stroke="#123f5a" stroke-width="38" stroke-linecap="round"/><path d="M600 300v-80" stroke="#123f5a" stroke-width="34" stroke-linecap="round"/><circle cx="600" cy="195" r="52" fill="#fff" stroke="#123f5a" stroke-width="12"/><path d="M600 195l22-27" stroke="#123f5a" stroke-width="9" stroke-linecap="round"/><path d="M220 510h760" stroke="#fff" stroke-width="16" stroke-linecap="round" opacity=".22"/></svg>
