<svg xmlns="http://www.w3.org/2000/svg" viewBox="0 0 1200 760" role="img" aria-labelledby="title desc"><title id="title">A-1 service vehicle</title><desc id="desc">Clean service vehicle illustration for backflow testing calls.</desc><rect width="1200" height="760" rx="42" fill="#eef9ff"/><circle cx="1015" cy="150" r="100" fill="#a7d8f0" opacity=".8"/><path d="M145 485h810c45 0 83-34 89-78l14-100c5-35-22-67-58-67H815l-95-112c-18-21-44-33-72-33H342c-42 0-78 30-85 71l-55 319" fill="#fff" stroke="#103d58" stroke-width="24" stroke-linejoin="round"/><path d="M334 244h265l71 86H318z" fill="#a7d8f0" stroke="#103d58" stroke-width="18"/><path d="M760 330h244" stroke="#103d58" stroke-width="18" stroke-linecap="round"/><text x="395" y="430" font-family="Arial, sans-serif" font-size="82" font-weight="800" fill="#103d58">A-1</text><text x="560" y="430" font-family="Arial, sans-serif" font-size="38" font-weight="700" fill="#103d58">BackFlow</text><circle cx="330" cy="500" r="78" fill="#103d58"/><circle cx="330" cy="500" r="35" fill="#a7d8f0"/><circle cx="860" cy="500" r="78" fill="#103d58"/><circle cx="860" cy="500" r="35" fill="#a7d8f0"/><path d="M125 575h960" stroke="#103d58" stroke-width="16" stroke-linecap="round" opacity=".25"/></svg>
